<?xml version="1.0" standalone="no"?>
<!DOCTYPE svg PUBLIC "-//W3C//DTD SVG 20010904//EN"
 "http://www.w3.org/TR/2001/REC-SVG-20010904/DTD/svg10.dtd">
<svg version="1.0" xmlns="http://www.w3.org/2000/svg"
 width="700.000000pt" height="700.000000pt" viewBox="0 0 700.000000 700.000000"
 preserveAspectRatio="xMidYMid meet">
<metadata>
Created by potrace 1.11, written by Peter Selinger 2001-2013
</metadata>
<g transform="translate(0.000000,700.000000) scale(0.100000,-0.100000)"
fill="#000000" stroke="none">
<path d="M610 6986 c-102 -29 -189 -92 -245 -181 -61 -95 -66 -128 -67 -400
-1 -243 -2 -245 -23 -245 -11 0 -26 -5 -33 -12 -7 -7 -12 -9 -12 -5 0 4 -18
-2 -40 -13 -22 -11 -40 -17 -40 -13 0 4 -6 -1 -13 -12 -8 -10 -19 -15 -26 -11
-6 4 -10 3 -9 -2 2 -5 -11 -21 -28 -35 -17 -15 -37 -40 -44 -57 -7 -16 -16
-28 -20 -25 -14 9 -1 -134 15 -158 8 -13 13 -27 10 -30 -3 -4 -2 -5 1 -3 11 9
46 -32 39 -45 -5 -8 -4 -10 4 -5 15 10 43 -13 34 -27 -3 -6 -1 -7 5 -3 7 4 20
2 29 -3 10 -6 12 -11 6 -11 -23 0 -27 -3 -75 -50 -26 -26 -51 -44 -54 -41 -4
3 -4 1 -1 -6 4 -6 1 -17 -6 -25 -7 -8 -12 -38 -12 -73 1 -64 27 -126 66 -153
11 -7 16 -18 13 -24 -4 -6 -3 -9 2 -6 5 3 25 -5 44 -18 19 -13 30 -24 24 -24
-6 0 -27 -11 -47 -24 -19 -13 -39 -21 -43 -18 -4 4 -4 2 -1 -5 4 -6 -5 -21
-19 -32 -15 -12 -24 -21 -21 -21 3 0 0 -15 -8 -33 -15 -37 -14 -98 4 -142 7
-16 11 -30 9 -30 -8 0 70 -68 94 -83 35 -21 35 -28 -2 -47 -33 -17 -90 -72
-90 -87 0 -5 -4 -6 -10 -3 -6 3 -7 -1 -4 -9 3 -9 2 -16 -3 -16 -12 0 -11 -123
1 -132 6 -4 4 -14 -5 -24 -11 -14 -11 -16 -1 -10 10 6 28 -7 58 -42 25 -28 53
-54 64 -57 28 -9 25 -18 -12 -40 -38 -21 -97 -84 -98 -102 0 -7 -4 -13 -8 -13
-4 0 -8 -29 -7 -65 0 -36 4 -65 9 -65 5 0 7 -3 3 -6 -3 -4 1 -13 9 -21 8 -9
13 -22 10 -30 -3 -8 -2 -12 3 -9 12 8 33 -19 23 -28 -4 -4 0 -6 8 -4 8 2 14
-3 12 -10 -1 -8 2 -11 8 -7 6 4 18 1 26 -6 12 -10 12 -14 2 -21 -9 -6 -5 -7
10 -3 34 10 26 -10 -13 -31 -19 -10 -35 -22 -35 -27 0 -4 -5 -5 -10 -2 -6 4
-9 1 -8 -7 2 -7 -3 -12 -10 -10 -6 1 -11 -1 -10 -5 3 -13 -24 -63 -32 -58 -12
7 -3 -131 10 -156 14 -27 108 -119 121 -119 5 0 9 -5 9 -11 0 -6 -9 -9 -19 -6
-15 3 -18 1 -14 -11 5 -12 2 -14 -12 -8 -11 4 -17 4 -13 1 3 -3 -12 -24 -33
-46 -22 -22 -39 -47 -39 -55 0 -8 -4 -14 -9 -14 -5 0 -7 -29 -6 -65 3 -52 9
-72 33 -107 32 -45 56 -69 92 -88 17 -9 19 -14 9 -26 -6 -8 -16 -14 -20 -14
-5 0 -30 -20 -55 -45 -24 -25 -42 -45 -38 -45 4 0 0 -7 -7 -17 -14 -16 -21
-155 -7 -147 4 2 9 -4 12 -14 10 -30 106 -122 128 -122 7 -1 0 -8 -17 -17 -34
-18 -118 -103 -124 -124 -18 -69 5 -174 46 -204 10 -7 13 -17 8 -25 -5 -9 -4
-11 3 -6 7 4 17 2 24 -3 7 -6 24 -19 37 -29 l24 -18 -45 -28 c-41 -27 -88 -83
-88 -106 0 -6 -4 -9 -9 -6 -4 3 -6 -25 -4 -62 5 -93 6 -101 15 -96 8 5 12 -11
9 -29 -1 -5 2 -6 7 -3 5 3 15 -3 24 -12 30 -34 76 -70 82 -65 3 4 6 2 6 -4 0
-13 -49 -46 -67 -46 -7 0 -11 -2 -9 -5 3 -2 -4 -14 -16 -26 -38 -39 -58 -98
-52 -152 3 -27 6 -54 6 -61 1 -7 8 -15 16 -18 8 -3 12 -12 8 -20 -3 -8 0 -14
7 -12 7 1 11 -4 9 -11 -1 -8 2 -11 6 -8 5 3 18 -4 28 -15 11 -12 29 -25 41
-30 15 -6 21 -14 17 -24 -4 -10 -13 -14 -22 -10 -9 3 -14 3 -11 0 6 -6 -82
-102 -91 -99 -10 4 -17 -101 -9 -150 2 -17 14 -40 27 -53 13 -13 20 -28 16
-35 -4 -6 -3 -8 4 -4 6 3 20 -6 31 -20 12 -15 21 -23 21 -19 0 5 9 0 19 -9 19
-18 19 -19 -27 -54 -26 -19 -49 -39 -50 -44 -2 -4 -9 -14 -16 -21 -22 -22 -36
-80 -30 -127 3 -25 6 -50 6 -57 1 -7 5 -10 10 -7 4 3 8 -2 8 -10 0 -9 5 -16
11 -16 5 0 9 -3 7 -7 -2 -5 9 -20 24 -35 15 -15 28 -24 28 -20 0 4 4 2 8 -4 7
-10 107 -60 162 -81 24 -10 24 -13 26 -120 2 -148 10 -195 47 -270 39 -80 116
-154 205 -196 l67 -32 2850 -3 c2154 -2 2863 0 2905 9 147 31 266 140 315 288
17 51 18 116 19 900 l1 846 57 6 c32 4 64 12 72 18 12 10 15 67 15 341 l0 329
-34 -15 c-47 -19 -115 -19 -115 1 0 8 3 15 8 16 4 0 23 2 43 4 56 4 79 15 88
38 5 12 9 214 9 448 l1 426 -33 -16 c-18 -10 -50 -17 -72 -16 -32 0 -40 4 -42
21 -3 19 3 22 53 26 96 8 90 -25 92 480 2 438 2 440 -18 423 -12 -11 -41 -20
-75 -23 -54 -4 -56 -4 -52 19 2 20 9 24 40 26 49 3 74 17 93 53 13 26 15 130
13 829 l-3 801 -26 26 c-18 18 -41 28 -72 31 l-45 5 0 147 c0 110 -4 162 -17
207 -40 142 -153 251 -300 290 -71 19 -5706 19 -5775 0z m-313 -1077 c1 -64
-2 -87 -11 -82 -6 4 -5 -1 3 -10 8 -10 12 -19 9 -22 -7 -8 -48 7 -42 16 3 5
-1 6 -9 3 -7 -2 -25 5 -38 16 -13 12 -18 18 -10 14 9 -5 12 -3 7 5 -4 6 -12 9
-17 5 -19 -12 -37 28 -27 58 6 15 14 25 19 22 5 -3 9 0 9 5 0 13 67 57 90 58
14 1 16 -11 17 -88z m-1 -424 c1 -120 0 -122 -75 -78 -44 25 -70 50 -71 66 0
4 9 16 20 27 11 11 17 20 13 20 -4 0 9 11 30 25 20 14 42 23 49 19 6 -4 8 -3
4 4 -3 6 2 13 11 15 10 3 18 5 18 6 0 0 1 -46 1 -104z m0 -430 c0 -58 -2 -103
-5 -102 -60 27 -118 63 -110 68 6 3 0 9 -13 13 -19 5 -20 8 -8 16 11 7 11 10
2 10 -7 0 -10 5 -7 10 4 6 11 8 16 5 5 -3 6 1 3 9 -4 10 1 18 12 23 11 3 23
13 27 20 5 7 13 11 18 8 5 -4 6 -11 3 -17 -4 -7 -2 -8 4 -4 6 4 9 12 6 19 -4
12 36 37 46 29 3 -2 5 -50 6 -107z m1 -411 c0 -103 0 -106 -21 -100 -11 3 -25
6 -30 6 -4 0 -5 7 -2 16 5 14 4 15 -8 5 -11 -9 -21 -5 -50 22 -35 34 -46 57
-26 57 6 0 10 6 10 13 0 7 13 23 29 34 22 17 31 19 40 10 9 -9 11 -8 6 4 -5
12 2 20 22 27 15 6 28 11 29 11 0 1 1 -47 1 -105z m-1 -429 l1 -103 -26 11
c-45 19 -106 64 -103 75 1 7 -2 12 -8 12 -5 0 -10 5 -10 11 0 5 4 7 10 4 5 -3
7 0 5 7 -3 8 6 24 21 37 21 19 28 20 36 10 6 -11 8 -9 6 6 -2 12 3 20 12 20 8
0 21 6 29 13 7 7 16 10 20 7 3 -4 6 -53 7 -110z m0 -410 c0 -58 -4 -105 -9
-105 -33 0 -137 76 -137 101 0 15 52 69 66 69 8 0 14 4 14 9 0 8 40 27 61 30
3 1 5 -46 5 -104z m0 -420 c0 -101 -1 -105 -21 -99 -34 10 -105 54 -105 65 0
6 6 7 13 3 7 -4 9 -3 4 2 -5 5 -14 9 -20 9 -19 0 -19 23 2 44 10 10 17 22 14
25 -4 3 1 6 10 6 10 0 17 5 17 11 0 6 7 8 16 5 10 -4 13 -2 8 6 -5 8 -2 9 10
5 9 -4 15 -3 11 2 -5 9 9 19 31 20 6 1 10 -37 10 -104z m1 -417 c-1 -57 -5
-102 -9 -100 -5 1 -15 2 -24 2 -8 0 -12 4 -9 10 3 5 0 7 -8 4 -8 -3 -21 2 -30
10 -9 9 -20 16 -25 16 -19 0 -43 49 -33 68 18 33 99 90 133 92 3 0 5 -46 5
-102z m-1 -422 l0 -104 -41 15 c-51 17 -108 73 -99 96 3 9 12 17 20 17 8 0 11
6 7 17 -5 13 -2 15 11 10 9 -4 15 -3 12 2 -7 10 22 36 30 28 4 -3 13 0 21 8
33 33 39 18 39 -89z m1 -420 c-1 -99 -2 -103 -21 -98 -30 8 -86 42 -86 53 0 5
-7 9 -16 9 -8 0 -12 5 -9 10 3 6 2 10 -4 10 -13 0 -9 21 11 49 10 14 21 20 29
16 7 -5 10 -4 6 2 -4 6 -1 16 7 22 11 9 15 9 19 -1 4 -9 6 -7 6 4 1 17 15 26
42 27 14 1 16 -14 16 -103z m-1 -420 l1 -105 -35 15 c-19 7 -36 14 -39 14 -2
0 -1 5 3 12 4 7 3 8 -4 4 -6 -4 -25 6 -43 22 -28 25 -30 31 -20 50 7 13 17 19
23 16 7 -5 8 -2 3 5 -7 13 32 48 48 43 4 -1 7 3 7 9 0 5 5 7 10 4 6 -3 10 -1
10 4 0 6 8 11 18 11 15 0 17 -12 18 -104z m0 -383 c-1 -43 -5 -84 -10 -92 -6
-10 -6 -12 2 -7 7 4 12 1 12 -7 0 -8 -7 -18 -16 -21 -17 -7 -94 29 -94 44 0 6
-8 10 -17 10 -9 0 -13 3 -10 7 4 3 2 12 -4 19 -16 20 26 69 85 98 28 14 51 26
52 26 0 0 0 -35 0 -77z m0 -448 c-1 -58 -4 -105 -8 -105 -15 0 -98 44 -98 52
0 4 -6 8 -14 8 -23 0 -27 41 -7 68 15 21 104 80 122 82 3 0 6 -47 5 -105z"/>
<path d="M210 5941 c0 -6 4 -13 10 -16 6 -3 7 1 4 9 -7 18 -14 21 -14 7z"/>
<path d="M170 5900 c0 -5 5 -10 11 -10 5 0 7 5 4 10 -3 6 -8 10 -11 10 -2 0
-4 -4 -4 -10z"/>
<path d="M196 4647 c3 -10 9 -15 12 -12 3 3 0 11 -7 18 -10 9 -11 8 -5 -6z"/>
<path d="M199 4233 c-13 -16 -12 -17 4 -4 9 7 17 15 17 17 0 8 -8 3 -21 -13z"/>
<path d="M166 2962 c-3 -5 1 -9 9 -9 8 0 12 4 9 9 -3 4 -7 8 -9 8 -2 0 -6 -4
-9 -8z"/>
<path d="M210 2501 c0 -6 4 -13 10 -16 6 -3 7 1 4 9 -7 18 -14 21 -14 7z"/>
<path d="M210 1239 c0 -5 5 -7 10 -4 6 3 10 8 10 11 0 2 -4 4 -10 4 -5 0 -10
-5 -10 -11z"/>
<path d="M33 715 c0 -8 4 -12 9 -9 5 3 6 10 3 15 -9 13 -12 11 -12 -6z"/>
</g>
</svg>
